<?xml version="1.0" encoding="utf-8"?>
<!-- Generator: Adobe Illustrator 17.1.0, SVG Export Plug-In . SVG Version: 6.00 Build 0)  -->
<!DOCTYPE svg PUBLIC "-//W3C//DTD SVG 1.1//EN" "http://www.w3.org/Graphics/SVG/1.1/DTD/svg11.dtd">
<svg version="1.1" id="Layer_1" xmlns="http://www.w3.org/2000/svg" xmlns:xlink="http://www.w3.org/1999/xlink" x="0px" y="0px"
	 viewBox="0 0 72 10.3" enable-background="new 0 0 72 10.3" xml:space="preserve">
<path fill-rule="evenodd" clip-rule="evenodd" fill="#636466" d="M37.8,10l-0.7-0.9c-0.6,0.6-1.9,1.1-2.8,1.1c-1.6,0-3-1.1-3-2.6
	c0-1.9,1.8-2.9,2.3-3c-0.4-0.4-1-1.2-1-2.1c0-1.2,0.8-2.2,2.4-2.2c1.4,0,2.5,0.9,2.5,2.3c0,1.5-1.2,2.1-1.5,2.4l1.1,1.6
	c0.3-0.4,0.6-1.4,0.6-1.5h1.5c0,0-0.2,1.9-1.1,2.9l1.6,2.1H37.8L37.8,10z M35.2,1.7c-0.5,0-0.9,0.4-0.8,0.8c0,0.5,0.5,0.9,0.7,1.2
	c0.4-0.3,1-0.6,1-1.2C36.1,2.1,35.7,1.7,35.2,1.7L35.2,1.7z M34.6,5.8c-1.5,1-1.4,1.7-1.4,1.7c0,0.7,0.7,1.1,1.1,1.1
	c0.6,0,1.4-0.5,1.8-0.8L34.6,5.8L34.6,5.8z"/>
<path fill-rule="evenodd" clip-rule="evenodd" fill="#636466" d="M8.2,4.4C7.9,3,6.6,1.9,5.1,1.9c-1.9,0-3.3,1.5-3.3,3.3
	c0,1.8,1.4,3.1,3.3,3.1c1.8,0,2.8-1.3,3-2.1H10c-0.4,2.6-2.9,4-4.9,4c-2.2,0-5.1-1.9-5.1-5C0,2.2,2.2,0,5.1,0c2.4,0,4.6,1.9,4.9,4.4
	H8.2L8.2,4.4z"/>
<path fill-rule="evenodd" clip-rule="evenodd" fill="#636466" d="M23.2,10.1c-1.5,0-1.7-1.1-1.7-1.6V4.1h-0.9V2.8h0.9V0.7h1.9v2.2
	h1.2v1.3h-1.2V8c0,1,1.2,0.7,1.4,0.7v1.4H23.2L23.2,10.1z"/>
<path fill-rule="evenodd" clip-rule="evenodd" fill="#636466" d="M12.2,6.8c0,0.1,0,3.2,0,3.2h-1.8V3h1.8v0.7
	C12.4,3.4,13,3,13.5,2.8c0.4,0,0.8,0,0.8,0v1.7C13.4,4.2,12.1,4.6,12.2,6.8L12.2,6.8z"/>
<path fill-rule="evenodd" clip-rule="evenodd" fill="#636466" d="M26.1,6.9c0,0.9,0.9,1.6,1.8,1.6c0.7,0,1.1-0.3,1.4-0.8h1.9
	C31,9,29.7,10.1,28,10.1c-2.2,0-3.7-1.6-3.7-3.9c0-1.8,1.3-3.6,3.5-3.5c2.5,0,3.6,2.2,3.5,4.2H26.1L26.1,6.9z M27.7,4.1
	c-0.8,0-1.5,0.6-1.5,1.5h3.1C29.3,4.7,28.6,4.1,27.7,4.1L27.7,4.1z"/>
<path fill-rule="evenodd" clip-rule="evenodd" fill="#636466" d="M19,10c0,0,0-0.3-0.1-0.6c-0.3,0.3-1,0.8-2.1,0.8
	c-1.2,0-2.6-0.7-2.6-2.2c0-0.9,0.6-2,2.6-2.3c1.1-0.2,2-0.1,2.1-0.7c0-0.2-0.2-1-1.3-1c-0.5,0-1.2,0.2-1.3,1h-1.6
	c0-1.2,0.7-2.3,3.1-2.3c1.5,0,2.9,0.6,2.9,2.2c0,0,0,3.7,0,3.9c0,0.4,0.2,0.9,0.3,1.1H19L19,10z M15.7,8c0,0.7,1,0.9,1.2,0.8
	c0,0,1,0,1.4-0.5c0.3-0.4,0.4-0.8,0.3-1.8C16.8,6.9,15.7,7.1,15.7,8L15.7,8z"/>
<polygon fill-rule="evenodd" clip-rule="evenodd" fill="#636466" points="70.2,0.6 72,0.6 72,10 70.2,10 70.2,0.6 "/>
<path fill-rule="evenodd" clip-rule="evenodd" fill="#636466" d="M60.9,6.8c0,0.1,0,3.2,0,3.2h-1.8V3h1.8v0.7
	c0.3-0.4,0.8-0.8,1.4-0.9c0.4-0.1,0.8,0,0.8,0v1.7C62.1,4.3,60.8,4.7,60.9,6.8L60.9,6.8z"/>
<path fill-rule="evenodd" clip-rule="evenodd" fill="#636466" d="M56.6,6.8c0,0.1,0,3.2,0,3.2h-1.9V3h1.8v0.7
	c0.3-0.4,0.8-0.8,1.4-0.9c0.4-0.1,0.8,0,0.8,0v1.7C57.8,4.3,56.5,4.7,56.6,6.8L56.6,6.8z"/>
<path fill-rule="evenodd" clip-rule="evenodd" fill="#636466" d="M64.7,7c0,0.9,0.9,1.6,1.8,1.6c0.6,0,1.1-0.2,1.4-0.8h1.9
	c-0.2,1.2-1.5,2.4-3.2,2.4c-2.1,0-3.7-1.6-3.7-3.9c0-1.8,1.3-3.6,3.5-3.5c2.4,0,3.6,2.2,3.5,4.2H64.7L64.7,7z M66.4,4.1
	c-0.8,0-1.6,0.6-1.6,1.5h3.1C67.9,4.8,67.2,4.1,66.4,4.1L66.4,4.1z"/>
<path fill-rule="evenodd" clip-rule="evenodd" fill="#636466" d="M44.9,10c-2,0-4.9,0-4.9,0V0.5h4.3c1.5,0,3,0.7,3,2.4
	c0,1.5-1.1,1.8-1.4,2c0.8,0.3,1.8,1.1,1.8,2.6C47.5,9.2,45.9,10,44.9,10L44.9,10z M43.8,2h-2.1v2.3h2c0.4,0,1.5-0.2,1.5-1.3
	C45.2,2.3,44.5,2,43.8,2L43.8,2z M43.8,5.8h-2.1v2.8H44c0.3,0,1.5-0.3,1.5-1.3C45.5,6.7,45.3,5.8,43.8,5.8L43.8,5.8z"/>
<path fill-rule="evenodd" clip-rule="evenodd" fill="#636466" d="M52.7,10c0,0-0.1-0.3-0.1-0.6c-0.3,0.3-1,0.8-2.1,0.8
	c-1.2,0-2.6-0.7-2.6-2.2c0-0.9,0.6-2,2.6-2.3c1.1-0.2,2-0.1,2-0.7c0-0.2-0.2-0.9-1.3-0.9c-0.5,0-1.1,0.1-1.3,1h-1.6
	c0-1.2,0.8-2.3,3.1-2.3c1.4,0,2.9,0.6,2.9,2.2c0,1.3,0,3.6,0,3.6c0,0.3,0.1,1.1,0.3,1.4H52.7L52.7,10z M49.6,8c0,0.7,1,0.9,1.2,0.8
	c0,0,1,0,1.4-0.5c0.3-0.4,0.4-0.7,0.3-1.8C50.7,7,49.6,7.1,49.6,8L49.6,8z"/>
</svg>
